<svg xmlns="http://www.w3.org/2000/svg" width="640.088" height="640.088" viewBox="0 0 2480 2480">
  <defs>
    <style>
      .cls-1, .cls-3 {
        fill: #fc0;
      }

      .cls-2, .cls-3 {
        fill-rule: evenodd;
      }
    </style>
  </defs>
  <circle class="cls-1" cx="1244" cy="1239" r="1224"/>
  <path class="cls-2" d="M734,608s-71.754-1.408-104,27c-30.716,27.06-26,98-26,98l-3,1013s-1.3,68.91,30,103c35.882,39.07,105,44,105,44H1771s59.01,2.44,88-28c30.94-32.49,32-98,32-98l-6-1028s6.3-75.5-27-108c-29.47-28.768-98-26-98-26Z"/>
  <path class="cls-3" d="M715,1173v522s-15.148,77.74,72,78,912,0,912,0,78.21,17.69,72-60-1-536-1-536l-152-4s19.9,185.74-39,281c-62.49,101.07-173,149-173,149s-116,32.64-206,23c-63.08-6.76-136.26-37.84-191-74-33.771-22.31-104.609-85.69-127-167-26.822-97.4-2-213-2-213Z"/>
  <path class="cls-3" d="M2263,1635,1247,989c143.59,0,260,116.41,260,260s-116.41,260-260,260-260-116.41-260-260S1103.41,989,1247,989Z"/>
  <rect id="Rounded_Rectangle_1" data-name="Rounded Rectangle 1" class="cls-1" x="1502" y="737" width="256" height="247" rx="30.5" ry="30.5"/>
</svg>
